<svg viewBox="0 0 800 800" xmlns="http://www.w3.org/2000/svg">
  <defs>
    <linearGradient id="gradient1" x1="0%" y1="0%" x2="100%" y2="100%">
      <stop offset="0%" style="stop-color:#06B6D4;stop-opacity:1" />
      <stop offset="100%" style="stop-color:#3B82F6;stop-opacity:1" />
    </linearGradient>
  </defs>
  
  <g transform="translate(400, 280)">
    <rect x="-120" y="-80" width="240" height="160" rx="30" fill="url(#gradient1)" opacity="0.9"/>
    <path d="M -60,80 L -70,110 L -40,80 Z" fill="url(#gradient1)" opacity="0.9"/>
    
    <g transform="translate(-70, 0)">
      <path d="M 0,-16 L 4,-4 L 16,-4 L 6,4 L 10,16 L 0,8 L -10,16 L -6,4 L -16,-4 L -4,-4 Z" fill="#FCD34D"/>
    </g>
    <g transform="translate(0, 0)">
      <path d="M 0,-16 L 4,-4 L 16,-4 L 6,4 L 10,16 L 0,8 L -10,16 L -6,4 L -16,-4 L -4,-4 Z" fill="#FCD34D"/>
    </g>
    <g transform="translate(70, 0)">
      <path d="M 0,-16 L 4,-4 L 16,-4 L 6,4 L 10,16 L 0,8 L -10,16 L -6,4 L -16,-4 L -4,-4 Z" fill="#FCD34D"/>
    </g>
  </g>
  
  <text x="400" y="560" font-family="Arial, sans-serif" font-size="112" font-weight="bold" fill="#1E293B" text-anchor="middle">Confeed</text>
  <text x="400" y="620" font-family="Arial, sans-serif" font-size="32" fill="#64748B" text-anchor="middle">Conference Feedback</text>
</svg>
